<svg width="72" height="20" viewBox="0 0 72 20" fill="none" xmlns="http://www.w3.org/2000/svg">
<path d="M6.72 19.3C5.42 19.3 4.43 18.93 3.75 18.19C3.09 17.45 2.76 16.56 2.76 15.52V6.82H0.51L0.81 4.12H2.76V0.7L6.12 0.339999V4.12H9.63V6.82H6.12V13.96C6.12 14.84 6.17 15.45 6.27 15.79C6.37 16.11 6.58 16.32 6.9 16.42C7.24 16.52 7.84 16.57 8.7 16.57H9.6L9.3 19.3H6.72ZM19.1353 19.3C17.4153 19.3 15.9453 18.95 14.7253 18.25C13.5253 17.55 12.6153 16.61 11.9953 15.43C11.3753 14.23 11.0653 12.9 11.0653 11.44C11.0653 10.04 11.3453 8.77 11.9053 7.63C12.4853 6.47 13.3253 5.55 14.4253 4.87C15.5453 4.19 16.8553 3.85 18.3553 3.85C19.6753 3.85 20.8153 4.13 21.7753 4.69C22.7553 5.23 23.4953 5.98 23.9953 6.94C24.5153 7.9 24.7753 9 24.7753 10.24C24.7753 10.88 24.7053 11.49 24.5653 12.07H14.5453C14.7253 13.61 15.2553 14.73 16.1353 15.43C17.0353 16.13 18.1453 16.48 19.4653 16.48C21.0853 16.48 22.5553 16.11 23.8753 15.37L24.1153 18.16C22.5953 18.92 20.9353 19.3 19.1353 19.3ZM21.3553 9.79C21.3553 8.91 21.1053 8.17 20.6053 7.57C20.1053 6.97 19.3453 6.67 18.3253 6.67C16.3853 6.67 15.1653 7.71 14.6653 9.79H21.3553ZM30.6755 19.3C29.3955 19.3 28.3355 18.9 27.4955 18.1C26.6755 17.28 26.2655 16.21 26.2655 14.89C26.2655 13.59 26.7255 12.55 27.6455 11.77C28.5655 10.99 29.6655 10.44 30.9455 10.12C32.2455 9.78 33.5355 9.59 34.8155 9.55C34.7955 8.51 34.5655 7.79 34.1255 7.39C33.6855 6.97 32.9555 6.76 31.9355 6.76C31.2955 6.76 30.6555 6.86 30.0155 7.06C29.3955 7.24 28.6955 7.54 27.9155 7.96L27.5555 5.23C29.2355 4.31 31.0055 3.85 32.8655 3.85C34.6655 3.85 36.0055 4.35 36.8855 5.35C37.7655 6.33 38.2055 7.96 38.2055 10.24V13.93C38.2055 14.71 38.2355 15.28 38.2955 15.64C38.3755 15.98 38.5055 16.22 38.6855 16.36C38.8855 16.5 39.2055 16.57 39.6455 16.57H40.0655L39.6755 19.3H38.7455C37.7855 19.3 37.0355 19.14 36.4955 18.82C35.9755 18.5 35.5555 18.03 35.2355 17.41C34.7155 17.99 34.0555 18.45 33.2555 18.79C32.4555 19.13 31.5955 19.3 30.6755 19.3ZM31.8755 16.69C32.3755 16.69 32.8955 16.57 33.4355 16.33C33.9955 16.07 34.4655 15.72 34.8455 15.28V11.83C33.3055 11.89 32.0655 12.16 31.1255 12.64C30.2055 13.12 29.7455 13.82 29.7455 14.74C29.7455 16.04 30.4555 16.69 31.8755 16.69ZM59.0618 3.85C61.0218 3.85 62.4818 4.43 63.4418 5.59C64.4018 6.73 64.8818 8.38 64.8818 10.54V19H61.5218V10.72C61.5218 9.32 61.2818 8.3 60.8018 7.66C60.3418 7 59.5718 6.67 58.4918 6.67C57.3118 6.67 56.4618 7.03 55.9418 7.75C55.4218 8.47 55.1618 9.42 55.1618 10.6V19H51.8318V10.93C51.8318 9.41 51.5718 8.32 51.0518 7.66C50.5518 7 49.7818 6.67 48.7418 6.67C47.3218 6.67 46.2318 7.17 45.4718 8.17V19H42.1118V4.12H44.9018L45.1118 5.44C46.4318 4.38 47.9218 3.85 49.5818 3.85C51.6218 3.85 53.1118 4.64 54.0518 6.22C54.5718 5.46 55.2518 4.88 56.0918 4.48C56.9518 4.06 57.9418 3.85 59.0618 3.85Z" fill="white"/>
<path d="M67.9139 15.25H71.5739V19H67.9139V15.25Z" fill="#5A4FF3"/>
</svg>
